<svg width="24" height="24" viewBox="0 0 24 24" fill="none" xmlns="http://www.w3.org/2000/svg">
<path d="M4.93206 4.28572C4.07958 4.28572 3.26201 4.62437 2.65922 5.22716C2.05642 5.82996 1.71777 6.64753 1.71777 7.50001V8.14286H22.2858V7.50001C22.2858 6.64753 21.9471 5.82996 21.3443 5.22716C20.7415 4.62437 19.924 4.28572 19.0715 4.28572H4.93206ZM1.71777 16.5V9.42858H22.2858V16.5C22.2858 17.3525 21.9471 18.1701 21.3443 18.7729C20.7415 19.3756 19.924 19.7143 19.0715 19.7143H4.93292C4.08043 19.7143 3.26287 19.3756 2.66007 18.7729C2.05728 18.1701 1.71863 17.3525 1.71863 16.5M15.6429 14.1429C15.4724 14.1429 15.3089 14.2106 15.1883 14.3312C15.0678 14.4517 15.0001 14.6152 15.0001 14.7857C15.0001 14.9562 15.0678 15.1197 15.1883 15.2403C15.3089 15.3608 15.4724 15.4286 15.6429 15.4286H18.6429C18.8134 15.4286 18.9769 15.3608 19.0975 15.2403C19.218 15.1197 19.2858 14.9562 19.2858 14.7857C19.2858 14.6152 19.218 14.4517 19.0975 14.3312C18.9769 14.2106 18.8134 14.1429 18.6429 14.1429H15.6429Z" fill="#1E194D"/>
</svg>
