<svg width="28" height="28" viewBox="0 0 28 28" fill="none" xmlns="http://www.w3.org/2000/svg">
<path d="M5.75403 5C4.75947 5 3.80564 5.39509 3.10238 6.09835C2.39912 6.80161 2.00403 7.75544 2.00403 8.75V9.5H26V8.75C26 7.75544 25.6049 6.80161 24.9017 6.09835C24.1984 5.39509 23.2446 5 22.25 5H5.75403ZM2.00403 19.25V11H26V19.25C26 20.2446 25.6049 21.1984 24.9017 21.9017C24.1984 22.6049 23.2446 23 22.25 23H5.75503C4.76047 23 3.80664 22.6049 3.10338 21.9017C2.40012 21.1984 2.00503 20.2446 2.00503 19.25M18.25 16.5C18.0511 16.5 17.8604 16.579 17.7197 16.7197C17.579 16.8603 17.5 17.0511 17.5 17.25C17.5 17.4489 17.579 17.6397 17.7197 17.7803C17.8604 17.921 18.0511 18 18.25 18H21.75C21.9489 18 22.1397 17.921 22.2804 17.7803C22.421 17.6397 22.5 17.4489 22.5 17.25C22.5 17.0511 22.421 16.8603 22.2804 16.7197C22.1397 16.579 21.9489 16.5 21.75 16.5H18.25Z" fill="#1E194D"/>
</svg>
