<svg width="114" height="45" viewBox="0 0 114 45" fill="none" xmlns="http://www.w3.org/2000/svg">
<path d="M34.6991 28.6696V26.1179H36.254V16.5291H34.6991V13.9774H40.8391V16.5291H39.2842L39.2443 26.1179H40.8391V28.6696H34.6991Z" fill="white"/>
<path d="M42.2386 28.6696V18.2435H45.3086V19.8782L47.1227 18.2435H50.7708L52.9836 20.4763V28.6696H49.9136V21.0145L49.1561 20.237H47.5812L45.3086 22.3302V28.6696H42.2386Z" fill="white"/>
<path d="M54.7155 28.6696V26.397H60.2574L60.9352 25.7192V25.1809L60.1976 24.4234H56.2505L54.1772 22.4498V20.2171L56.2306 18.2635H62.9088V20.5161H57.8054L57.1874 21.174V21.5528L57.9051 22.2903H61.8921L63.9654 24.244V26.696L61.9121 28.6696H54.7155Z" fill="white"/>
<path d="M65.2598 31.4085V18.0488H68.3298V19.4243L69.805 18.0289H73.5528L75.7656 20.2616V26.2421L73.5528 28.4549H69.825L68.3298 27.0794V31.4085H65.2598ZM70.2436 26.4614H72.0776L72.7554 25.7637V20.74L72.0776 20.0224L70.2436 20.0423L68.3298 21.8365V24.6672L70.2436 26.4614Z" fill="white"/>
<path d="M77.308 17.1072V14.4758H80.378V17.1072H77.308ZM77.308 28.6696V18.2435H80.378V28.6696H77.308Z" fill="white"/>
<path d="M82.1711 28.6696V18.2435H85.2411V19.9779L87.0552 18.2635H89.268V21.1341H86.5967L85.2411 22.4299V28.6696H82.1711Z" fill="white"/>
<path d="M92.4084 28.6696L90.1956 26.4568V20.4763L92.4084 18.2635H97.7111L99.9438 20.4763V24.3835H93.2656V25.5796L94.063 26.377L99.7644 26.3571V28.6696H92.4084ZM93.2456 22.3701H97.0333V21.0145L96.2359 20.2171L94.063 20.237L93.2456 21.0145V22.3701Z" fill="white"/>
<path d="M25.7321 15.3954H24.0753V13.5048H28.9595V18.389H27.0689V16.7325L15.3806 28.4207L14.0437 27.0838L25.7321 15.3954Z" fill="white"/>
<path d="M15.2904 14.5694L13.9535 15.9063L18.7278 20.6806L20.0647 19.3437L15.2904 14.5694Z" fill="white"/>
<path d="M21.7836 23.7364L23.1205 22.3995L27.0689 26.3479V24.6912H28.9595V29.5755H24.0753V27.6848H25.732L21.7836 23.7364Z" fill="white"/>
</svg>
