<svg width="16" height="14" viewBox="0 0 16 14" fill="none" xmlns="http://www.w3.org/2000/svg">
<path d="M8.45167 3.40982C6.32871 3.40982 4.61633 5.01206 4.61633 6.99845C4.61633 8.98485 6.32871 10.5871 8.45167 10.5871C10.5746 10.5871 12.287 8.98485 12.287 6.99845C12.287 5.01206 10.5746 3.40982 8.45167 3.40982ZM8.45167 9.33153C7.07976 9.33153 5.9582 8.28524 5.9582 6.99845C5.9582 5.71167 7.07642 4.66537 8.45167 4.66537C9.82692 4.66537 10.9451 5.71167 10.9451 6.99845C10.9451 8.28524 9.82358 9.33153 8.45167 9.33153ZM13.3385 3.26303C13.3385 3.7284 12.9379 4.10006 12.4439 4.10006C11.9465 4.10006 11.5493 3.72527 11.5493 3.26303C11.5493 2.80079 11.9499 2.42599 12.4439 2.42599C12.9379 2.42599 13.3385 2.80079 13.3385 3.26303ZM15.8787 4.11256C15.8219 2.99131 15.5482 1.99811 14.6703 1.17981C13.7958 0.361518 12.7343 0.10541 11.536 0.0491914C10.3009 -0.0163971 6.59909 -0.0163971 5.36404 0.0491914C4.16904 0.102287 3.10756 0.358394 2.22967 1.17669C1.35178 1.99498 1.08141 2.98818 1.02132 4.10943C0.951226 5.26504 0.951226 8.72874 1.02132 9.88435C1.07807 11.0056 1.35178 11.9988 2.22967 12.8171C3.10756 13.6354 4.1657 13.8915 5.36404 13.9477C6.59909 14.0133 10.3009 14.0133 11.536 13.9477C12.7343 13.8946 13.7958 13.6385 14.6703 12.8171C15.5449 11.9988 15.8186 11.0056 15.8787 9.88435C15.9488 8.72874 15.9488 5.26816 15.8787 4.11256ZM14.2831 11.1243C14.0228 11.7364 13.5187 12.2081 12.8611 12.4548C11.8764 12.8202 9.53985 12.7359 8.45167 12.7359C7.36349 12.7359 5.02356 12.8171 4.0422 12.4548C3.38795 12.2112 2.88392 11.7396 2.62022 11.1243C2.22967 10.2029 2.3198 8.01663 2.3198 6.99845C2.3198 5.98027 2.23301 3.79086 2.62022 2.87262C2.88058 2.26046 3.38461 1.78885 4.0422 1.54211C5.0269 1.17669 7.36349 1.26102 8.45167 1.26102C9.53985 1.26102 11.8798 1.17981 12.8611 1.54211C13.5154 1.78573 14.0194 2.25734 14.2831 2.87262C14.6737 3.79398 14.5835 5.98027 14.5835 6.99845C14.5835 8.01663 14.6737 10.206 14.2831 11.1243Z" fill="#FBBC05"/>
</svg>
