<svg width="24" height="24" viewBox="0 0 24 24" fill="none" xmlns="http://www.w3.org/2000/svg">
<path d="M21.75 18.6234V22.5C21.75 22.6989 21.671 22.8897 21.5303 23.0303C21.3897 23.171 21.1989 23.25 21 23.25C20.8011 23.25 20.6103 23.171 20.4697 23.0303C20.329 22.8897 20.25 22.6989 20.25 22.5V18.6234C20.2465 17.6608 20.0449 16.7091 19.6579 15.8277C19.2708 14.9463 18.7065 14.1539 18 13.5V18.9703C17.9999 19.1317 17.9477 19.2888 17.8512 19.4181C17.7546 19.5475 17.619 19.6423 17.4643 19.6884C17.3096 19.7345 17.1442 19.7295 16.9926 19.6741C16.841 19.6187 16.7113 19.5159 16.6228 19.3809L15.6216 17.8519C15.6141 17.8406 15.6066 17.8284 15.6 17.8162C15.4529 17.5565 15.2087 17.3659 14.9211 17.2863C14.6334 17.2066 14.326 17.2445 14.0662 17.3916C13.8065 17.5386 13.6159 17.7828 13.5363 18.0705C13.4566 18.3581 13.4945 18.6656 13.6416 18.9253L15.7162 22.0931C15.8252 22.2596 15.8635 22.4625 15.8228 22.6572C15.7821 22.8519 15.6657 23.0225 15.4992 23.1314C15.3328 23.2403 15.1298 23.2786 14.9351 23.2379C14.7404 23.1972 14.5698 23.0808 14.4609 22.9144L12.3741 19.7269L12.3516 19.6912C12.0285 19.1376 11.9192 18.485 12.0442 17.8563C12.1692 17.2277 12.5199 16.6665 13.0301 16.2786C13.5404 15.8906 14.175 15.7028 14.8141 15.7505C15.4533 15.7982 16.053 16.0781 16.5 16.5375V6H15C14.8011 6 14.6103 5.92098 14.4697 5.78033C14.329 5.63968 14.25 5.44891 14.25 5.25C14.25 5.05109 14.329 4.86032 14.4697 4.71967C14.6103 4.57902 14.8011 4.5 15 4.5H16.5C16.8978 4.5 17.2794 4.65803 17.5607 4.93934C17.842 5.22064 18 5.60217 18 6V11.5894C19.1512 12.3673 20.0946 13.4149 20.7482 14.6409C21.4018 15.8669 21.7458 17.2341 21.75 18.6234ZM8.25 5.25C8.25 5.05109 8.17098 4.86032 8.03033 4.71967C7.88968 4.57902 7.69891 4.5 7.5 4.5H6C5.60218 4.5 5.22064 4.65803 4.93934 4.93934C4.65804 5.22064 4.5 5.60217 4.5 6V18.75C4.5 18.9489 4.57902 19.1397 4.71967 19.2803C4.86032 19.421 5.05109 19.5 5.25 19.5C5.44891 19.5 5.63968 19.421 5.78033 19.2803C5.92098 19.1397 6 18.9489 6 18.75V6H7.5C7.69891 6 7.88968 5.92098 8.03033 5.78033C8.17098 5.63968 8.25 5.44891 8.25 5.25ZM14.7806 9.21937C14.711 9.14964 14.6283 9.09432 14.5372 9.05658C14.4462 9.01884 14.3486 8.99941 14.25 8.99941C14.1514 8.99941 14.0538 9.01884 13.9628 9.05658C13.8717 9.09432 13.789 9.14964 13.7194 9.21937L12 10.9397V1.5C12 1.30109 11.921 1.11032 11.7803 0.96967C11.6397 0.829018 11.4489 0.75 11.25 0.75C11.0511 0.75 10.8603 0.829018 10.7197 0.96967C10.579 1.11032 10.5 1.30109 10.5 1.5V10.9397L8.78063 9.21937C8.63989 9.07864 8.44902 8.99958 8.25 8.99958C8.05098 8.99958 7.86011 9.07864 7.71937 9.21937C7.57864 9.3601 7.49958 9.55098 7.49958 9.75C7.49958 9.94902 7.57864 10.1399 7.71937 10.2806L10.7194 13.2806C10.789 13.3504 10.8717 13.4057 10.9628 13.4434C11.0538 13.4812 11.1514 13.5006 11.25 13.5006C11.3486 13.5006 11.4462 13.4812 11.5372 13.4434C11.6283 13.4057 11.711 13.3504 11.7806 13.2806L14.7806 10.2806C14.8504 10.211 14.9057 10.1283 14.9434 10.0372C14.9812 9.94616 15.0006 9.84856 15.0006 9.75C15.0006 9.65144 14.9812 9.55384 14.9434 9.46279C14.9057 9.37175 14.8504 9.28903 14.7806 9.21937Z" fill="#1E194D"/>
</svg>
