<svg width="14" height="10" viewBox="0 0 14 10" fill="none" xmlns="http://www.w3.org/2000/svg">
<path d="M12.3567 2.42893C12.3649 2.53553 12.3649 2.64214 12.3649 2.74874C12.3649 6 9.72013 9.74622 4.88631 9.74622C3.39711 9.74622 2.0137 9.34264 0.850006 8.64217C1.06159 8.66499 1.26502 8.67261 1.48475 8.67261C2.71352 8.67261 3.84468 8.2843 4.74797 7.62186C3.59241 7.59901 2.62402 6.89089 2.29037 5.91626C2.45314 5.93909 2.61588 5.95432 2.78679 5.95432C3.02277 5.95432 3.25879 5.92385 3.47849 5.87058C2.27411 5.64213 1.3708 4.65229 1.3708 3.45686V3.42641C1.72071 3.60915 2.12763 3.72337 2.55889 3.73858C1.85091 3.29694 1.38708 2.54314 1.38708 1.69034C1.38708 1.2335 1.51726 0.814714 1.74513 0.449228C3.03903 1.94162 4.98396 2.91622 7.16484 3.02284C7.12416 2.8401 7.09974 2.64976 7.09974 2.4594C7.09974 1.10405 8.27158 0 9.72822 0C10.485 0 11.1686 0.296954 11.6487 0.776651C12.2428 0.670057 12.8124 0.464463 13.317 0.182743C13.1216 0.753823 12.7066 1.23352 12.1614 1.53807C12.6904 1.48479 13.203 1.34771 13.675 1.15737C13.317 1.64466 12.8694 2.07866 12.3567 2.42893Z" fill="#FBBC05"/>
</svg>
