<svg width="24" height="25" viewBox="0 0 24 25" fill="none" xmlns="http://www.w3.org/2000/svg">
<path fill-rule="evenodd" clip-rule="evenodd" d="M10.6838 13.0674C10.0164 12.6215 9.23174 12.3834 8.42906 12.3834V8.01282C10.0962 8.01282 11.7258 8.50717 13.112 9.43337C14.4981 10.3596 15.5785 11.676 16.2165 13.2162C16.8545 14.7564 17.0214 16.4512 16.6962 18.0863C16.3709 19.7214 15.5681 21.2233 14.3893 22.4021C13.2105 23.581 11.7086 24.3837 10.0735 24.709C8.4384 25.0342 6.7436 24.8673 5.20339 24.2293C3.66318 23.5913 2.34674 22.511 1.42054 21.1248C0.49435 19.7386 -3.17572e-06 18.109 0 16.4419L4.37062 16.4419C4.37062 17.2446 4.60864 18.0292 5.05459 18.6966C5.50054 19.364 6.13438 19.8842 6.87596 20.1914C7.61754 20.4986 8.43356 20.5789 9.22082 20.4223C10.0081 20.2657 10.7312 19.8792 11.2988 19.3116C11.8664 18.744 12.2529 18.0209 12.4095 17.2336C12.5661 16.4464 12.4857 15.6304 12.1786 14.8888C11.8714 14.1472 11.3512 13.5134 10.6838 13.0674Z" fill="#2EB9FF"/>
<path fill-rule="evenodd" clip-rule="evenodd" d="M18.7311 4.37062H8.42896V0H23.1018V14.6728H18.7311V4.37062Z" fill="#4A6DFF"/>
</svg>
