<svg width="14" height="12" viewBox="0 0 14 12" fill="none" xmlns="http://www.w3.org/2000/svg">
<path d="M3.81449 11.9997H1.1556V3.98813H3.81449V11.9997ZM2.48361 2.89527C1.63339 2.89527 0.943756 2.23634 0.943756 1.4408C0.943756 1.05868 1.10599 0.692205 1.39477 0.422002C1.68355 0.151798 2.07522 0 2.48361 0C2.89201 0 3.28368 0.151798 3.57246 0.422002C3.86124 0.692205 4.02347 1.05868 4.02347 1.4408C4.02347 2.23634 3.33356 2.89527 2.48361 2.89527ZM13.7659 11.9997H11.1127V8.09973C11.1127 7.17027 11.0927 5.9783 9.73031 5.9783C8.3479 5.9783 8.13606 6.98813 8.13606 8.03277V11.9997H5.48003V3.98813H8.03014V5.08098H8.06736C8.42233 4.45152 9.28945 3.78723 10.5831 3.78723C13.2741 3.78723 13.7688 5.44527 13.7688 7.59884V11.9997H13.7659Z" fill="#FBBC05"/>
</svg>
